<svg xmlns="http://www.w3.org/2000/svg" width="1535.677" height="120.266" viewBox="0 0 1535.677 120.266">
  <path id="Path_4" data-name="Path 4" d="M42.328,2.145c26.455,0,37.752-10.01,37.752-27.313,0-12.87-5.291-23.738-33.176-28.457C31.317-56.2,30.03-58.916,30.03-62.348c0-4,3.289-6.006,10.153-6.006,8.294,0,11.011,3.432,12.441,10.153l25.6-4.862c-2-14.3-12.012-24.882-36.608-24.882-25.025,0-37.037,9.581-37.037,26.884,0,15.015,7.293,24.6,31.174,28.171C51.194-30.459,54.2-27.885,54.2-23.6c0,3.861-3.861,5.434-10.725,5.434-7.722,0-14.443-3-16.3-11.44L2.717-24.31C4.29-10.725,12.727,2.145,42.328,2.145ZM95.1-22.165c0,13.156,6.864,24.31,23.881,24.31a47.355,47.355,0,0,0,17.16-2.717l-2.574-21.736a30.552,30.552,0,0,1-8.008,1.573c-4.719,0-6.149-1.859-6.149-5.863v-22.88h15.587V-68.354H119.4V-85.085H95.1v16.731H88.088v18.876H95.1Zm83.8-30.459c6.721,0,10.153,4.147,9.867,13.442H167.739C168.454-49.192,171.886-52.624,178.893-52.624Zm.286,54.769c20.449,0,27.885-9.724,30.888-20.878l-20.306-5.434c-1.287,3.718-3.289,7.007-10.439,7.007S168.6-20.449,167.739-29.887H210.5a71.632,71.632,0,0,0,.429-9.438c0-18.733-9.724-31.174-31.317-31.174-23.166,0-35.75,14.157-35.75,38.324C143.858-8.723,158.73,2.145,179.179,2.145ZM267.7,0l20.592-68.354h-25.6l-6.006,27.17c-1.43,6.578-3,13.013-4.29,19.3h-2c-1.287-6.292-2.717-12.727-4.147-19.3l-5.863-27.17H213.928L234.663,0ZM326.04-52.624c6.721,0,10.153,4.147,9.867,13.442H314.886C315.6-49.192,319.033-52.624,326.04-52.624Zm.286,54.769c20.449,0,27.885-9.724,30.888-20.878l-20.306-5.434c-1.287,3.718-3.289,7.007-10.439,7.007s-10.725-3.289-11.583-12.727h42.757a71.635,71.635,0,0,0,.429-9.438c0-18.733-9.724-31.174-31.317-31.174C303.589-70.5,291-56.342,291-32.175,291-8.723,305.877,2.145,326.326,2.145ZM371.371-85.8l-4.433,40.9v.858H380.38L395.824-85.8Zm57.2,87.945c21.593,0,30.888-8.008,30.888-22.022,0-10.439-4.29-18.018-26.741-23.023-11.44-2.574-12.3-4.719-12.3-7.293,0-2.717,2.288-4.147,7.007-4.147,5.863,0,8.008,2.431,9.009,7.865l21.45-4.433C455.741-62.634,449.163-70.5,428-70.5c-20.592,0-30.459,7.722-30.459,21.736,0,12.3,6.292,18.3,25.6,22.88,11.44,2.574,13.013,4.433,13.013,7.15-.143,3-2.431,4.29-7.007,4.29-5.72,0-9.867-2.288-11.44-8.866L396.11-18.876C397.54-7.293,404.118,2.145,428.571,2.145Zm94.094-93.951h-24.31V0h24.31Zm38.324,16.159V-91.806h-24.31v16.159Zm0,75.647V-68.354h-24.31V0Zm43.186,2.145c21.593,0,30.888-8.008,30.888-22.022,0-10.439-4.29-18.018-26.741-23.023-11.44-2.574-12.3-4.719-12.3-7.293,0-2.717,2.288-4.147,7.007-4.147,5.863,0,8.008,2.431,9.009,7.865l21.45-4.433C631.345-62.634,624.767-70.5,603.6-70.5c-20.592,0-30.459,7.722-30.459,21.736,0,12.3,6.292,18.3,25.6,22.88,11.44,2.574,13.013,4.433,13.013,7.15-.143,3-2.431,4.29-7.007,4.29-5.72,0-9.867-2.288-11.44-8.866l-21.593,4.433C573.144-7.293,579.722,2.145,604.175,2.145Zm45.045-24.31c0,13.156,6.864,24.31,23.881,24.31a47.355,47.355,0,0,0,17.16-2.717l-2.574-21.736a30.552,30.552,0,0,1-8.008,1.573c-4.719,0-6.149-1.859-6.149-5.863v-22.88h15.587V-68.354H673.53V-85.085H649.22v16.731h-7.007v18.876h7.007Zm113.4,24.31c22.022,0,35.75-13.585,35.75-36.322,0-22.88-13.728-36.322-35.75-36.322-22.451,0-36.036,13.442-36.036,36.322C726.583-11.44,740.168,2.145,762.619,2.145Zm-.143-52.481c8.723,0,11.726,5.72,11.726,16.159S771.2-18.3,762.476-18.3c-8.58,0-11.583-5.434-11.583-15.873S753.9-50.336,762.476-50.336Zm75.218-19.877c0-5.434,3.146-7.293,6.864-7.293a46.028,46.028,0,0,1,6.149.429l.858-16.3a49.126,49.126,0,0,0-12.3-1.144c-17.875,0-25.883,10.153-25.883,23.6v2.574H805.09v18.876h8.294V0h24.31V-49.478H850.85V-68.354H837.694Zm113.685,1.859H924.495l-4.576,27.17c-1.287,7.15-2.145,14.586-3,22.308h-2c-1-7.436-2.288-14.443-3.718-22.308l-5.005-27.17H881.023L898.469,0h30.888l3.432-29.029c.858-6.435,1.573-13.585,2.288-20.592h2c.572,7.007,1.287,14.014,2.145,20.592l4,29.029h31.746l17.3-68.354H968.539l-4,27.17c-1.144,8.008-2.431,15.015-3.432,22.308h-2.145c-.858-7.722-1.716-15.158-3-22.308Zm78.65,15.73c6.721,0,10.153,4.147,9.867,13.442h-21.021C1019.59-49.192,1023.022-52.624,1030.029-52.624Zm.286,54.769c20.449,0,27.885-9.724,30.888-20.878L1040.9-24.167c-1.287,3.718-3.289,7.007-10.439,7.007s-10.725-3.289-11.583-12.727h42.757a71.619,71.619,0,0,0,.429-9.438c0-18.733-9.724-31.174-31.317-31.174-23.166,0-35.75,14.157-35.75,38.324C994.994-8.723,1009.866,2.145,1030.315,2.145Zm77.506-21.307c-5.863,0-9.724-4.576-9.724-11.869v-5.434c0-7.436,3.718-12.155,9.724-12.155,7.15,0,10.153,4.719,10.153,14.586S1115.114-19.162,1107.821-19.162ZM1098.1-91.806h-24.31V0h24.31V-17.589h1.144c3.718,12.3,10.439,19.734,20.592,19.734,13.585,0,21.736-12.441,21.736-36.322,0-23.6-7.722-36.322-21.307-36.322-9.724,0-17.017,6.721-20.878,18.876H1098.1Zm57.486,69.641c0,13.156,6.864,24.31,23.881,24.31a47.356,47.356,0,0,0,17.16-2.717l-2.574-21.736a30.552,30.552,0,0,1-8.008,1.573c-4.719,0-6.149-1.859-6.149-5.863v-22.88h15.587V-68.354h-15.587V-85.085h-24.31v16.731h-7.007v18.876h7.007Zm76.505-15.3c0-6.578,3.432-11.154,9.152-11.154,4.862,0,7.436,3.146,7.436,8.58V0h24.31V-47.047c0-14.872-6.149-23.452-17.732-23.452-10.439,0-17.732,6.864-22.022,20.592h-1.144v-41.9h-24.31V0h24.31Zm78.793-38.181V-91.806h-24.31v16.159Zm0,75.647V-68.354h-24.31V0ZM1349.2-37.466c0-6.578,3.432-11.154,9.152-11.154,4.862,0,7.436,3.146,7.436,8.58V0h24.31V-47.047c0-14.872-6.435-23.452-18.018-23.452-10.01,0-17.875,6.578-22.022,20.592h-1.573V-68.354H1324.9V0h24.31Zm83.512-13.013c7.722,0,10.582,3.146,10.582,7.007,0,3.432-2.431,7.007-10.582,7.007-8.294,0-10.582-3.575-10.582-7.007C1422.135-47.047,1424.423-50.479,1432.717-50.479Zm.572,59.917c-15.158,0-17.732-1.716-17.732-5.291,0-2.86,3.289-4.576,7.722-4.576h22.451c4.147,0,5.863,1.573,5.863,4.29C1451.593,7.579,1448.018,9.438,1433.289,9.438Zm-1.859,16.3c28.6.143,38.467-7.722,38.467-22.594,0-11.44-6.721-18.59-22.88-18.59-6.864,0-14.3.429-21.593.429-4.29,0-5.434-.858-5.434-2.86a9.349,9.349,0,0,1,.858-3.289l.429-1a56.793,56.793,0,0,0,11.44,1c19.3,0,30.745-7.15,30.745-17.589,0-6.864-6.721-9.438-14.729-10.868v-1.43c5.291.286,9.438.429,12.727.429h7.007V-68.354H1432.86c-20.306,0-32.175,8.58-32.175,23.738,0,11.011,5.863,18.161,16.3,21.45l-4.862,2.145c-6.721,2.431-9.724,6.435-9.724,10.582,0,4.576,2.717,8.58,12.012,9.724V.143c-9.009,1.859-16.588,6.149-16.588,12.3C1397.825,20.592,1405.118,25.883,1431.43,25.74Zm76.076-23.6c21.593,0,30.888-8.008,30.888-22.022,0-10.439-4.29-18.018-26.741-23.023-11.44-2.574-12.3-4.719-12.3-7.293,0-2.717,2.288-4.147,7.007-4.147,5.863,0,8.008,2.431,9.009,7.865l21.45-4.433c-2.145-11.726-8.723-19.591-29.887-19.591-20.592,0-30.459,7.722-30.459,21.736,0,12.3,6.292,18.3,25.6,22.88,11.44,2.574,13.013,4.433,13.013,7.15-.143,3-2.431,4.29-7.007,4.29-5.72,0-9.867-2.288-11.44-8.866l-21.593,4.433C1476.475-7.293,1483.053,2.145,1507.506,2.145Z" transform="translate(-2.717 94.523)"/>
</svg>
